# xmcd CD database file
#
# Track frame offsets:
#	150
#	11852
#	22197
#	44725
#	58915
#	87775
#	112537
#	122237
#	137812
#	149045
#	166007
#	187900
#	201337
#	214377
#	228975
#
# Disc length: 3241 seconds
#
# Revision: 0
# Processed by: cddbd v1.5PL3 Copyright (c) Steve Scherf et al.
# Submitted via: CDex 1.51
#
DISCID=df0ca70f
DTITLE=Time Life - Essential Jazz Volume 2
DYEAR=1945
DGENRE=Jazz
TTITLE0=Something's Gotta Give
TTITLE1=Cloudburst
TTITLE2=Killer Joe
TTITLE3=Cast Your Fate to the Wind
TTITLE4=Seven Steps to Heaven
TTITLE5=Lush LIfe
TTITLE6=Chicago
TTITLE7=The Cat
TTITLE8=Watermelon Man
TTITLE9=Fly Me to the Moon
TTITLE10=Night Train
TTITLE11=Cry Me a River
TTITLE12=I'm in the Mood for Love
TTITLE13=Since I Fell for You
TTITLE14=Mercy, Mercy, Mercy
EXTD=YEAR: 1945
EXTT0=
EXTT1=
EXTT2=
EXTT3=
EXTT4=
EXTT5=
EXTT6=
EXTT7=
EXTT8=
EXTT9=
EXTT10=
EXTT11=
EXTT12=
EXTT13=
EXTT14=
PLAYORDER=
